<?xml version="1.0" encoding="UTF-8" standalone="no"?>
<svg
   version="1.1"
   id="Layer_1"
   x="0px"
   y="0px"
   width="368.17355"
   viewBox="0 0 368.17355 217.84355"
   enable-background="new 0 0 677 369"
   xml:space="preserve"
   sodipodi:docname="logo.svg"
   height="217.84355"
   inkscape:version="1.4.2 (ebf0e940d0, 2025-05-08)"
   xmlns:inkscape="http://www.inkscape.org/namespaces/inkscape"
   xmlns:sodipodi="http://sodipodi.sourceforge.net/DTD/sodipodi-0.dtd"
   xmlns="http://www.w3.org/2000/svg"
   xmlns:svg="http://www.w3.org/2000/svg"><defs
   id="defs45" /><sodipodi:namedview
   id="namedview45"
   pagecolor="#ffffff"
   bordercolor="#000000"
   borderopacity="0.25"
   inkscape:showpageshadow="2"
   inkscape:pageopacity="0.0"
   inkscape:pagecheckerboard="0"
   inkscape:deskcolor="#d1d1d1"
   inkscape:zoom="3.1707317"
   inkscape:cx="215.40769"
   inkscape:cy="132.77692"
   inkscape:window-width="3436"
   inkscape:window-height="1381"
   inkscape:window-x="0"
   inkscape:window-y="57"
   inkscape:window-maximized="1"
   inkscape:current-layer="Layer_1" />

<path
   fill="#4d6b7d"
   opacity="1"
   stroke="none"
   d="m 267.28659,108.67381 c 0.19117,-0.0449 0.38233,-0.0897 1.22245,-0.2421 2.69378,-1.41983 4.73861,-2.73216 6.78341,-4.04448 0,0 -0.0276,-0.0532 0.38327,-0.0714 4.62949,-1.93274 6.65525,0.0592 7.58283,4.00763 -0.22583,0.83029 -0.45166,1.66056 -1.18961,2.87016 -0.93292,1.32799 -1.3537,2.27669 -1.77447,3.22539 -3e-5,-2e-5 -0.0869,0.44877 -0.50141,0.71063 -1.4674,1.87236 -2.52032,3.48286 -3.57324,5.09335 -0.94186,1.16388 -1.88373,2.32775 -3.30536,3.87197 -4.88601,3.68051 -9.2922,6.98066 -14.04773,10.33564 -20.30926,10.81025 -40.06338,21.97324 -60.29553,32.1895 -15.62073,7.88774 -31.85364,14.5606 -47.77249,21.86486 -1.38385,0.63495 -2.45462,1.95214 -4.06784,2.93569 -5.38748,1.28574 -10.37799,2.58817 -15.69583,3.78891 -4.14011,-3.38076 -7.95285,-6.65985 -11.76563,-9.9389 10.98398,-4.33429 21.75775,-9.33852 32.9953,-12.86462 24.04251,-7.54401 39.9437,-26.94202 42.19361,-51.92713 1.04708,-11.62771 2.78305,-23.324643 8.99588,-33.573013 4.97634,-8.20868 11.85183,-14.81363 19.38839,-20.73801 14.86957,-11.68871 30.07093,-22.99835 44.37601,-35.34427 7.27292,-6.276866 12.92288,-14.441814 19.2547,-21.797862 2.53561,-2.94574 4.93179,-6.011498 7.38776,-9.025795 6.49508,6.398994 2.78094,33.906397 -6.57468,44.288227 -1.11636,1.11201 -1.61087,1.99304 -2.10538,2.87407 0,0 0.006,0.0823 -0.38727,0.12482 -3.13247,3.32088 -5.87164,6.5992 -8.61077,9.87753 0,0 0.0135,0.0799 -0.35053,0.13 -1.07321,0.75159 -1.78238,1.45312 -2.49158,2.15466 0,0 -0.0446,-0.0783 -0.35327,-0.0415 -1.13373,0.94531 -1.95877,1.8538 -2.78387,2.7623 -0.2023,0.27627 -0.4046,0.55256 -0.99603,1.10656 -0.62104,0.46276 -0.8154,0.68119 -0.9722,0.93305 0,0 -0.0263,0.0781 -0.39884,0.0938 -1.449,0.95097 -2.52554,1.88623 -3.60208,2.8215 0,0 -0.46753,0.13944 -1.08053,0.19321 -3.89945,1.75702 -8.79502,1.59948 -8.78205,7.1181 0,0 -0.0668,-0.0441 -0.2352,0.0689 -0.43142,0.29533 -0.67303,0.50258 -0.89319,0.73479 -0.85946,0.61117 -1.71893,1.22235 -3.23861,1.95449 -2.01883,1.45574 -3.37741,2.7905 -4.73599,4.12525 0,0 -0.002,0.0131 -0.20374,0.12327 -0.44916,0.2844 -0.66208,0.49323 -0.841,0.73671 0,0 -0.042,0.1205 -0.26389,0.22219 -0.42444,0.26703 -0.59973,0.45746 -0.74777,0.67299 0,0 -0.002,0.13572 -0.45157,0.16832 -2.38434,1.50608 -4.44092,2.85621 -6.15616,4.55165 -0.36603,0.36181 0.50797,1.97813 0.8107,3.01649 2.14734,-0.63669 4.46463,-0.94951 6.41043,-1.97032 6.01291,-3.15456 12.04907,-6.32208 17.75553,-9.98422 4.17068,-2.67653 7.83526,-6.14168 11.72543,-9.2553 0.17084,-0.0495 0.34167,-0.099 1.13412,-0.21972 5.30771,-2.67145 11.11942,-3.97226 12.51319,-10.37288 0,0 0.23785,0.0284 0.4946,0.0437 1.72894,-1.12746 3.12628,-2.38812 4.69244,-3.38292 1.92328,-1.22163 3.98764,-2.22119 5.991,-3.31674 0.0229,0.44118 0.0458,0.88235 -0.0708,1.75476 -0.2674,0.69541 -0.24659,0.94946 -0.0771,1.19337 -0.1127,0.54697 -0.2254,1.09395 -0.50522,2.2241 -0.19751,0.96243 -0.22794,1.34166 -0.25839,1.7209 0,0 0.0443,0.0423 -0.28986,0.1593 -3.17746,1.99269 -2.54373,3.9794 -0.52231,6.01041 -0.39807,1.07052 -0.79611,2.14105 -1.58654,3.67947 -1.10352,2.07826 -1.81464,3.68863 -2.52576,5.299 -4.15201,10.42003 -12.09631,17.65606 -21.27142,23.1952 -9.0514,5.464453 -18.92649,9.553383 -28.35367,14.413623 -2.72763,1.40625 -5.15701,3.39086 -8.1846,5.51076 -0.88544,0.6963 -1.30942,0.99219 -1.7334,1.28807 0.0893,0.19229 0.17865,0.38457 0.26797,0.57686 0.81232,-0.27751 1.62461,-0.55504 2.43692,-0.83255 8.29691,-2.39835 16.59381,-4.79668 25.68445,-7.22048 2.57718,-0.90095 4.36057,-1.77644 6.14398,-2.65194 z"
   id="path2" />
<path
   fill="#a0b1b9"
   opacity="1"
   stroke="none"
   d="m 211.31107,67.109287 c -11.30432,10.26923 -18.27783,22.9583 -21.17206,37.921193 -0.67505,3.48999 -1.31192,6.98734 -2.43936,10.90671 -4.46124,0.74788 -8.44949,1.07036 -12.63019,1.11659 -5.20688,-4.77374 -10.9573,-7.98968 -17.78393,-6.59935 -5.39783,1.09935 -10.66303,3.21141 -15.73575,5.44475 -5.18152,2.28125 -8.54276,1.98296 -13.02158,-1.59956 -1.27127,-1.01688 -3.76181,-1.64493 -5.20386,-1.11637 -6.25308,2.29209 -6.46237,2.13556 -9.05493,-4.18972 -1.02435,-2.49923 -3.38156,-4.45215 -5.121,-7.05227 0.1655,-1.37927 0.1503,-2.425523 0.49933,-3.331463 10.99002,-28.5264 30.50635,-47.24391 61.22177,-52.93469 9.58142,-1.77518 19.13623,-2.07373 28.50281,1.92762 0.84875,1.37966 1.73803,2.35622 2.40667,3.46578 3.21006,5.32721 6.36048,10.69038 9.53208,16.04078 m -48.4628,8.52507 c -6.69937,-7.8356 -15.12649,-8.68786 -22.4234,-1.65812 -2.8887,2.78293 -5.23535,6.47921 -6.8208,10.19029 -3.17197,7.42465 2.75735,15.71521 10.87079,16.342773 10.28866,0.79584 23.84659,-10.863513 18.37341,-24.874943 m 20.12225,-17.85571 c -3.87246,-1.07994 -7.35159,-0.38028 -9.87329,2.82179 -0.61358,0.7791 -0.55816,2.68241 -0.0361,3.65178 1.92938,3.58219 5.59351,3.61266 8.78711,2.89888 2.21915,-0.496 4.09784,-2.51524 6.12863,-3.85396 -1.41974,-1.74374 -2.83948,-3.48748 -5.00638,-5.51849 z"
   id="path3" />
<path
   fill="#99aab1"
   opacity="1"
   stroke="none"
   d="m 118.88864,185.35469 c 4.19355,3.19506 8.00629,6.47415 12.11097,10.15203 0.23449,0.79227 0.17712,1.18567 0.11975,1.57911 -6.40912,2.02276 -12.73822,4.36157 -19.2425,6.00851 -18.760339,4.75028 -37.450079,9.98663 -56.451399,13.49472 -10.21727,1.88638 -21.06668,1.28885 -31.5336,0.50806 -5.70169,-0.4253 -11.60865,-2.83927 -16.6985398,-5.66251 -8.55666,-4.74618 -8.84163,-16.7406 -4.19486,-26.12497 7.5856498,-15.31959 19.6705198,-26.686 32.4344198,-37.37163 10.77925,-9.02415 21.9709,-17.574 33.23473,-25.99302 5.31607,-3.97344 11.22882,-7.14856 17.51786,-11.09073 0.34241,4.94873 0.21799,8.48019 -3.5677,11.19958 -12.67595,9.10559 -25.64317,17.87732 -37.7012,27.75103 -11.57007,9.47418 -22.54323,19.832 -29.74739,33.32638 -1.61379,3.02287 -2.85616,6.29985 -3.84362,9.58776 -1.3548798,4.51141 1.88784,9.52853 6.45656,10.56918 11.67919,2.66015 23.43253,1.8992 35.02129,-0.081 11.91261,-2.03546 23.78166,-4.57962 35.44877,-7.7218 10.24412,-2.759 20.182329,-6.65368 30.636459,-10.13073 z"
   id="path4" />
<path
   fill="#7797ac"
   opacity="1"
   stroke="none"
   d="m 109.13755,102.3397 c 1.7503,2.20168 4.10751,4.1546 5.13186,6.65383 2.59256,6.32528 2.80185,6.48181 9.05493,4.18972 1.44205,-0.52856 3.93259,0.0995 5.20386,1.11637 4.47882,3.58252 7.84006,3.88081 13.02158,1.59956 5.07272,-2.23334 10.33792,-4.3454 15.73575,-5.44475 6.82663,-1.39033 12.57705,1.82561 17.77481,6.99108 -0.81607,4.37068 -1.81553,8.07333 -3.23334,11.79084 -2.92282,0.21234 -6.10819,-0.59977 -6.43182,3.3022 -0.31775,3.83147 2.97689,3.67563 5.3717,4.38166 0.77365,0.22808 1.61578,0.2239 2.81903,0.35205 2.75415,1.07603 7.14133,-0.91654 6.75479,4.26159 -2.93548,4.24457 -5.1467,9.37386 -8.98477,12.51592 -5.11298,4.18573 -11.49158,6.82548 -18.0787,10.16547 -6.37449,-1.31807 -11.99677,-2.67226 -17.70756,-4.38643 -1.7904,-5.08464 -4.66702,-7.78846 -10.37942,-6.3396 -1.65866,-1.11937 -3.06454,-1.97927 -4.33185,-3.00957 -4.54065,-3.69144 -9.03442,-7.4406 -13.59854,-11.53255 -0.39264,-1.79667 -0.7326,-3.22876 -0.87921,-4.96254 -0.45361,-10.87224 -0.91657,-21.4277 2.7569,-31.64485 m 34.68621,42.16666 c 0.81714,-0.79468 1.8675,-1.45607 2.41111,-2.40712 2.36422,-4.13632 0.19671,-10.04679 -4.35678,-12.2076 -4.53046,-2.1499 -9.84021,-0.2415 -10.81092,4.771 -0.54648,2.8219 0.45197,6.62904 2.13007,9.03143 2.38809,3.41887 6.3594,2.81142 10.62652,0.81229 z"
   id="path5"
   sodipodi:nodetypes="csssssccssccscccsccccssssc" />
<path
   fill="#4e6a7c"
   opacity="1"
   stroke="none"
   d="m 109.14841,101.94126 c -3.60574,10.21181 -3.25912,21.19537 -3.06622,31.86112 -4.57242,-2.2169 -13.938434,-0.63833 -13.294993,-7.50544 -1.143886,-9.63497 1.631353,-19.24923 3.966568,-28.522052 4.349065,-15.857378 12.972905,-30.482449 25.195895,-41.539365 11.98721,-12.034424 27.73477,-20.17015 44.57541,-22.596001 19.02613,-4.763194 39.17505,-0.548391 56.73885,7.37268 2.92018,2.742166 14.65205,5.808046 8.70254,10.348015 -4.86771,3.986768 -10.15727,5.824232 -15.22497,1.257922 -5.41201,-2.802506 -11.24064,-5.262916 -17.43033,-5.357202 -14.8752,-5.683639 -31.43747,-2.013207 -45.79504,3.46746 -21.2171,8.368563 -36.61762,27.45068 -44.07037,48.590175 -0.16819,0.865798 -0.18382,1.749998 -0.29734,2.622688 z"
   id="path6" />
<path
   fill="#395265"
   opacity="1"
   stroke="none"
   d="m 131.44205,197.24824 c 1.77644,-4.42284 10.79858,-3.81946 15.57623,-5.6192 16.54303,7.61919 35.45887,11.71036 53.42349,7.02273 20.40094,-5.39463 38.73768,-19.01852 49.44875,-37.25324 4.80451,-8.30281 7.86023,-17.55836 9.32555,-27.0227 4.31901,-2.78984 10.04974,-8.41913 13.56315,-9.31471 0.34243,19.4095 -7.52514,38.29046 -19.01451,53.66009 -15.34058,19.607 -38.79889,33.30705 -63.91108,34.57668 -20.59469,1.5535 -41.58826,-3.98134 -58.41158,-16.04965 z"
   id="path7" />
<path
   fill="#697784"
   opacity="1"
   stroke="none"
   d="m 361.88968,16.596252 c 7.59431,6.940875 7.98353,19.086296 2.68634,27.500521 -11.6166,19.135051 -28.8644,33.899038 -46.00242,47.93067 -7.39691,5.811109 -14.76493,11.687727 -22.35648,17.231757 -2.43657,1.9293 -7.60195,3.21816 -5.12832,-1.39555 0.86368,-4.1823 3.12926,-8.170127 2.24973,-12.50076 0.64992,-6.115437 7.33175,-8.270772 11.53104,-11.591457 14.97289,-10.426514 28.72005,-22.620486 41.05906,-36.047743 3.99805,-5.017127 7.77336,-10.421197 10.07998,-16.429675 1.56985,-5.754037 -3.93762,-10.866265 -9.41189,-11.090125 -12.90224,-2.009362 -25.68478,1.631116 -38.57204,1.879763 -4.97193,2.204424 -4.98754,-6.552046 -0.98022,-7.525252 6.35481,-0.992447 12.86497,-0.990542 19.27631,-1.674223 7.99444,-0.496634 16.03783,-1.489734 24.04027,-0.90989 4.10721,0.753751 7.87876,2.670888 11.52864,4.621964 z"
   id="path8" />
<path
   fill="#4a6779"
   opacity="1"
   stroke="none"
   d="m 93.314491,130.75364 c 4.26487,0.81772 8.433269,2.05826 12.574339,3.35047 1.05263,2.45565 1.10839,5.19572 2.28995,7.60354 2.97125,7.6837 5.62869,15.5627 9.78103,22.71378 2.53671,3.84685 6.26645,6.64495 9.36734,9.99576 -4.20716,1.7851 -8.28242,4.00439 -12.68396,5.25379 -2.28473,-0.18274 -3.75521,-2.1574 -4.55539,-4.11908 -4.76804,-8.80921 -9.93703,-17.49311 -13.319744,-26.95884 -1.823193,-5.79845 -2.263324,-11.90404 -3.453565,-17.83942 z"
   id="path9" />
<path
   fill="#6a7c8a"
   opacity="1"
   stroke="none"
   d="m 127.71451,174.3719 c -3.81097,-3.6431 -8.14227,-6.84157 -10.4563,-11.12886 -3.97543,-7.36539 -6.69223,-15.4101 -9.94156,-23.55049 4.50733,3.34649 9.0011,7.09565 13.54175,10.78709 1.26731,1.0303 2.67319,1.8902 4.28821,3.37505 0.95172,3.03761 1.13699,5.84806 2.47382,7.91299 0.9804,1.51445 3.42749,2.61015 5.30984,2.75766 0.79117,0.062 1.81168,-2.80248 2.72791,-4.33655 5.62228,1.35419 11.24456,2.70838 17.25354,4.10462 -8.01221,3.37242 -16.41105,6.7028 -25.19721,10.07849 z"
   id="path10" />
<path
   fill="#87a4af"
   opacity="1"
   stroke="none"
   d="m 180.66724,141.40498 c 0.06,-5.04926 -4.32718,-3.05669 -7.06107,-4.5434 -0.70175,-2.83784 -1.03128,-5.23895 -1.36078,-7.64007 0.99942,-3.70267 1.99888,-7.40532 3.00742,-11.49973 3.99735,-0.71423 7.9856,-1.03671 12.34409,-1.38014 1.21457,9.18298 -1.96707,17.26192 -6.92966,25.06334 z"
   id="path11"
   sodipodi:nodetypes="cccccc" />
<path
   fill="#7996a8"
   opacity="1"
   stroke="none"
   d="m 199.37232,47.602727 c 8.75345,-0.15525 15.97308,4.34156 23.65707,8.53682 -3.51138,3.7392 -7.29989,7.27396 -11.40332,10.88922 -3.4866,-5.26988 -6.63702,-10.63305 -9.84708,-15.96026 -0.66864,-1.10956 -1.55792,-2.08612 -2.40667,-3.46578 z"
   id="path12" />
<path
   fill="#4d616e"
   opacity="1"
   stroke="none"
   d="m 272.96711,69.642617 c -3.55033,3.07257 -7.21491,6.53772 -11.38559,9.21425 -5.70646,3.66214 -11.74262,6.82966 -17.75553,9.98422 -1.9458,1.02081 -4.26309,1.33363 -6.41043,1.97032 -0.30273,-1.03836 -1.17673,-2.65468 -0.8107,-3.01649 1.71524,-1.69544 3.77182,-3.04557 6.09009,-4.53604 0.0834,0.85913 -0.21677,1.73526 -0.51697,2.61138 0.30219,0.40276 0.6044,0.80553 0.90662,1.20829 9.84753,-5.7983 19.6951,-11.59658 29.88251,-17.43593 m -33.9682,19.48618 c 0.26653,-0.24061 0.53311,-0.48122 0.79968,-0.72181 -0.35501,0.0779 -0.71003,0.15578 -0.79968,0.72181 z"
   id="path13" />
<path
   fill="#516470"
   opacity="1"
   stroke="none"
   d="m 283.51706,108.09422 c -1.18609,-3.71912 -3.21185,-5.71109 -7.81363,-3.76694 3.29761,-2.81972 6.97837,-5.669023 10.65915,-8.518333 0.60971,0.51053 1.21942,1.02105 1.82914,1.53158 -1.47205,3.508133 -2.94407,7.016263 -4.67466,10.753693 z"
   id="path14" />
<path
   fill="#4d616e"
   opacity="1"
   stroke="none"
   d="m 298.19016,51.992927 c -2.06122,1.45558 -4.12558,2.45514 -6.04886,3.67677 -1.56616,0.9948 -2.9635,2.25546 -4.81192,3.38459 2.80002,-3.85267 5.97626,-7.69168 10.04361,-12.60772 0.46988,2.78519 0.67242,3.98576 0.81717,5.54636 z"
   id="path15" />
<path
   fill="#4d616e"
   opacity="1"
   stroke="none"
   d="m 286.916,58.797631 c -1.07675,6.27744 -6.88846,7.57825 -11.93304,10.20575 3.63302,-3.34264 7.62451,-6.7126 11.93304,-10.20575 z"
   id="path16" />
<path
   fill="#4d616e"
   opacity="1"
   stroke="none"
   d="m 276.47293,57.008577 c 2.44916,-3.12226 5.18833,-6.40058 8.27958,-9.72027 -2.4285,3.16048 -5.20908,6.36234 -8.27958,9.72027 z"
   id="path17" />
<path
   fill="#4d616e"
   opacity="1"
   stroke="none"
   d="m 254.66953,74.272297 c -0.31052,-5.35457 4.58505,-5.19703 8.24289,-6.92036 -2.40088,2.23872 -5.17313,4.49751 -8.24289,6.92036 z"
   id="path18" />
<path
   fill="#516470"
   opacity="1"
   stroke="none"
   d="m 274.9419,104.47111 c -1.69425,1.22844 -3.73908,2.54077 -6.14807,3.88553 1.68972,-1.24562 3.74362,-2.52365 6.14807,-3.88553 z"
   id="path19" />
<path
   fill="#4d616e"
   opacity="1"
   stroke="none"
   d="m 296.73121,65.177807 c -2.34397,-1.79302 -2.9777,-3.77973 0.16989,-5.76581 0.25369,1.76901 0.20318,3.6484 -0.16989,5.76581 z"
   id="path20" />
<path
   fill="#516470"
   opacity="1"
   stroke="none"
   d="m 266.9408,108.55424 c -1.43762,0.99507 -3.22101,1.87056 -5.3942,2.73875 1.42295,-0.95764 3.23569,-1.90797 5.3942,-2.73875 z"
   id="path21" />
<path
   fill="#516470"
   opacity="1"
   stroke="none"
   d="m 276.55191,120.19691 c 0.72083,-1.58437 1.77375,-3.19487 3.16785,-4.85074 -0.71777,1.57796 -1.77676,3.20129 -3.16785,4.85074 z"
   id="path22" />
<path
   fill="#4d616e"
   opacity="1"
   stroke="none"
   d="m 245.57163,81.204747 c 1.05594,-1.21971 2.41452,-2.55447 4.12646,-3.92596 -1.039,1.24582 -2.43142,2.52838 -4.12646,3.92596 z"
   id="path23" />
<path
   fill="#4d616e"
   opacity="1"
   stroke="none"
   d="m 292.58206,74.217077 c 0.42542,-1.43318 1.13654,-3.04355 2.15479,-4.78656 -0.4183,1.44801 -1.14368,3.02869 -2.15479,4.78656 z"
   id="path24" />
<path
   fill="#4d616e"
   opacity="1"
   stroke="none"
   d="m 264.56143,67.160287 c 0.74967,-0.97052 1.82621,-1.90578 3.23652,-2.87087 -0.74738,0.94884 -1.82849,1.92748 -3.23652,2.87087 z"
   id="path25" />
<path
   fill="#4d616e"
   opacity="1"
   stroke="none"
   d="m 270.49988,62.084817 c 0.52893,-0.8232 1.35397,-1.73169 2.52744,-2.65579 -0.51151,0.84645 -1.3714,1.70848 -2.52744,2.65579 z"
   id="path26" />
<path
   fill="#4d616e"
   opacity="1"
   stroke="none"
   d="m 285.46314,47.040797 c 0.21237,-0.75953 0.70688,-1.64056 1.50577,-2.6174 -0.20496,0.76809 -0.7143,1.63199 -1.50577,2.6174 z"
   id="path27" />
<path
   fill="#4d616e"
   opacity="1"
   stroke="none"
   d="m 273.64176,59.372767 c 0.40829,-0.625 1.11746,-1.32653 2.15045,-2.07299 -0.40063,0.63553 -1.12509,1.31598 -2.15045,2.07299 z"
   id="path28" />
<path
   fill="#516470"
   opacity="1"
   stroke="none"
   d="m 280.5781,114.26814 c 0.13714,-0.79779 0.55792,-1.74649 1.27994,-2.82155 -0.13129,0.80597 -0.56379,1.73831 -1.27994,2.82155 z"
   id="path29" />
<path
   fill="#4d616e"
   opacity="1"
   stroke="none"
   d="m 297.35959,59.088207 c -0.10831,-0.22136 -0.0779,-0.60059 -9.1e-4,-1.16121 0.0776,0.21351 0.10861,0.60843 9.1e-4,1.16121 z"
   id="path30" />
<path
   fill="#4d616e"
   opacity="1"
   stroke="none"
   d="m 298.07111,55.065997 c -0.2562,-0.009 -0.27701,-0.26287 -0.0598,-0.62998 0.10837,0.063 0.12742,0.22895 0.0598,0.62998 z"
   id="path31" />


<path
   fill="#4d616e"
   opacity="1"
   stroke="none"
   d="m 253.51798,75.248797 c -0.0542,-0.24096 0.18738,-0.44821 0.65845,-0.74911 0.0107,0.17355 -0.18671,0.46571 -0.65845,0.74911 z"
   id="path34" />
<path
   fill="#4d616e"
   opacity="1"
   stroke="none"
   d="m 268.47007,64.157387 c -0.0778,-0.19952 0.11657,-0.41795 0.53155,-0.7253 0.1651,0.2285 0.005,0.49359 -0.53155,0.7253 z"
   id="path35" />
<path
   fill="#697a89"
   opacity="1"
   stroke="none"
   d="m 258.86673,134.43064 c -2.85425,20.439 -12.70389,37.02713 -29.13324,49.63633 -24.24011,18.60379 -50.44812,21.26211 -78.36404,9.36319 -1.22385,-0.52167 -2.44458,-1.05054 -3.95419,-1.7844 0.92883,-1.20862 1.9996,-2.52581 3.38345,-3.16076 15.91885,-7.30426 32.15176,-13.97712 47.77249,-21.86486 20.23215,-10.21626 39.98627,-21.37925 60.29553,-32.1895 m -51.43551,37.35459 c -1.6604,2.03343 -3.69004,3.86966 -4.90369,6.14172 -2.46176,4.60858 1.14285,9.87512 6.33392,9.017 5.52738,-0.91373 10.41245,-3.58247 13.32108,-8.64505 2.85882,-4.97601 0.50357,-9.11827 -5.18265,-8.95613 -3.01184,0.0859 -5.99255,1.26539 -9.56866,2.44246 m 30.35415,-13.31937 c -3.66092,-2.30238 -5.01077,0.62132 -6.11599,3.05075 -0.36216,0.79605 0.8717,2.31816 1.3757,3.50824 1.65744,-1.31485 3.37204,-2.56749 4.92651,-3.99451 0.33014,-0.30307 0.0766,-1.24202 -0.18622,-2.56448 z"
   id="path36" />

<path
   fill="#728392"
   opacity="1"
   stroke="none"
   d="m 163.0087,75.992407 c 5.31275,13.65338 -8.24518,25.312733 -18.53384,24.516893 -8.11344,-0.627563 -14.04276,-8.918123 -10.87079,-16.342773 1.58545,-3.71108 3.9321,-7.40736 6.8208,-10.19029 7.29691,-7.02974 15.72403,-6.17748 22.58383,2.01617 z"
   id="path38" />
<path
   fill="#7795a6"
   opacity="1"
   stroke="none"
   d="m 183.34412,57.922277 c 1.7933,1.88738 3.21304,3.63112 4.63278,5.37486 -2.03079,1.33872 -3.90948,3.35796 -6.12863,3.85396 -3.1936,0.71378 -6.85773,0.68331 -8.78711,-2.89888 -0.52209,-0.96937 -0.57751,-2.87268 0.0361,-3.65178 2.5217,-3.20207 6.00083,-3.90173 10.24689,-2.67816 z"
   id="path39" />
<path
   fill="#6e808e"
   opacity="1"
   stroke="none"
   d="m 143.478,144.67704 c -3.92136,1.82845 -7.89267,2.4359 -10.28076,-0.98297 -1.6781,-2.40239 -2.67655,-6.20953 -2.13007,-9.03143 0.97071,-5.0125 6.28046,-6.9209 10.81092,-4.771 4.55349,2.16081 6.721,8.07128 4.35678,12.2076 -0.54361,0.95105 -1.59397,1.61244 -2.75687,2.5778 z"
   id="path40" />
<path
   fill="#455f74"
   opacity="1"
   stroke="none"
   d="m 135.56967,159.82881 c -0.82772,1.89405 -1.84823,4.75854 -2.6394,4.69653 -1.88235,-0.14751 -4.32944,-1.24321 -5.30984,-2.75766 -1.33683,-2.06493 -1.5221,-4.87538 -2.15744,-7.73167 5.43966,-1.99566 8.31628,0.70816 10.10668,5.7928 z"
   id="path41" />
<path
   fill="#99b1bb"
   opacity="1"
   stroke="none"
   d="m 171.827,129.23635 c 0.74789,2.38628 1.07742,4.78739 1.38672,7.59917 -0.83106,0.30859 -1.67319,0.31277 -2.44684,0.0847 -2.39481,-0.70603 -5.68945,-0.55019 -5.3717,-4.38166 0.32363,-3.90197 3.509,-3.08986 6.43182,-3.3022 z"
   id="path42" />

<path
   fill="#3b5569"
   opacity="1"
   stroke="none"
   d="m 207.7219,171.53959 c 3.28543,-0.93143 6.26614,-2.11095 9.27798,-2.19682 5.68622,-0.16214 8.04147,3.98012 5.18265,8.95613 -2.90863,5.06258 -7.7937,7.73132 -13.32108,8.64505 -5.19107,0.85812 -8.79568,-4.40842 -6.33392,-9.017 1.21365,-2.27206 3.24329,-4.10829 5.19437,-6.38736 z"
   id="path44" />
<path
   fill="#506b7e"
   opacity="1"
   stroke="none"
   d="m 237.92447,158.8041 c 0.12372,0.98422 0.37726,1.92317 0.0471,2.22624 -1.55447,1.42702 -3.26907,2.67966 -4.92651,3.99451 -0.504,-1.19008 -1.73786,-2.71219 -1.3757,-3.50824 1.10522,-2.42943 2.45507,-5.35313 6.25509,-2.71251 z"
   id="path45" />
</svg>
