<svg version="1.1" id="Layer_1" xmlns="http://www.w3.org/2000/svg" xmlns:xlink="http://www.w3.org/1999/xlink" x="0px" y="0px"
	 width="100%" viewBox="0 0 677 369" enable-background="new 0 0 677 369" xml:space="preserve">
<path fill="#000000" opacity="1.000000" stroke="none"
	d="
M401.427490,151.752380 
	C401.720398,151.582962 401.907837,151.334091 402.003540,151.005646 
	C402.003540,151.005646 402.005035,150.992569 402.610321,150.762512 
	C404.002716,149.479950 405.395142,148.197388 407.401245,146.746338 
	C408.260712,146.135178 409.120178,145.524002 410.528381,144.930344 
	C410.725769,144.638184 410.923157,144.346024 411.041260,144.064987 
	C411.041260,144.064987 411.108032,144.109131 411.703094,143.781036 
	C414.475342,141.522232 417.247589,139.263443 420.503082,136.937256 
	C420.503082,136.937256 420.970612,136.797821 421.624390,136.868317 
	C422.705505,135.889679 423.786621,134.911041 424.945190,133.960632 
	C424.945190,133.960632 424.971527,133.882507 425.440735,133.777847 
	C425.742767,133.598465 425.902771,133.333374 426.332855,132.671738 
	C426.535156,132.395462 426.737457,132.119171 427.532074,131.672318 
	C428.391968,130.810287 429.251862,129.948257 430.032318,129.043793 
	C430.032318,129.043793 430.076904,129.122086 430.678711,128.969009 
	C431.403168,128.288544 432.127625,127.608093 432.932526,126.917381 
	C432.932526,126.917381 432.919006,126.837433 433.498932,126.525291 
	C436.279480,123.323433 439.060059,120.121574 441.923096,116.917358 
	C441.923096,116.917358 441.917053,116.835083 442.481323,116.592064 
	C442.990662,115.728165 443.500000,114.864265 444.644257,113.730019 
	C453.378052,103.579185 457.092194,76.071777 450.600769,69.675957 
	C448.141144,72.687080 445.744965,75.752838 443.209351,78.698578 
	C436.877533,86.054626 431.227570,94.219574 423.954651,100.496437 
	C409.649567,112.842361 394.448212,124.152000 379.578644,135.840714 
	C372.042084,141.765091 365.166595,148.370041 360.190247,156.578720 
	C353.977417,166.827087 352.241455,178.524017 351.194366,190.151733 
	C348.944458,215.136841 333.043274,234.534851 309.000763,242.078857 
	C297.763214,245.604965 286.989441,250.609192 275.243896,255.111435 
	C265.170563,258.504517 255.232346,262.399200 244.988235,265.158203 
	C233.321121,268.300385 221.452072,270.844543 209.539459,272.880005 
	C197.950699,274.860168 186.197357,275.621124 174.518173,272.960968 
	C169.949448,271.920319 166.706726,266.903198 168.061615,262.391785 
	C169.049072,259.103882 170.291443,255.826904 171.905228,252.804031 
	C179.109390,239.309647 190.082550,228.951828 201.652618,219.477646 
	C213.710648,209.603943 226.677872,200.832214 239.353821,191.726624 
	C243.139511,189.007233 243.263931,185.475769 242.921524,180.527039 
	C236.632477,184.469208 230.719727,187.644333 225.403656,191.617767 
	C214.139832,200.036789 202.948181,208.586639 192.168930,217.610794 
	C179.405029,228.296417 167.320160,239.662827 159.734512,254.982422 
	C155.087738,264.366791 155.372711,276.361206 163.929367,281.107391 
	C169.019257,283.930634 174.926224,286.344604 180.627914,286.769897 
	C191.094833,287.550690 201.944244,288.148224 212.161514,286.261841 
	C231.162827,282.753754 249.852570,277.517395 268.612915,272.767120 
	C275.117188,271.120178 281.446289,268.781372 288.500824,267.083466 
	C301.334320,276.122894 315.751770,281.458801 331.197540,282.789093 
	C350.726776,284.471039 369.578827,280.831848 386.319489,270.142853 
	C400.236664,261.256653 411.500610,249.719101 419.196686,234.715714 
	C425.813324,221.816711 430.007050,208.523026 430.130280,193.387421 
	C431.072144,192.223557 432.014008,191.059692 433.620056,189.843567 
	C434.679047,188.220245 435.738037,186.596909 436.943604,184.540604 
	C436.943604,184.540604 437.030487,184.091812 437.597809,183.790009 
	C438.030304,182.857681 438.462799,181.925339 439.317078,180.487137 
	C439.542938,179.656845 439.768768,178.826569 440.511658,177.537704 
	C441.983704,174.029572 443.455719,170.521439 444.927765,167.013306 
	C444.318054,166.502777 443.708344,165.992264 443.098633,165.481735 
	C439.417847,168.331039 435.737091,171.180344 432.000916,174.006805 
	C432.000916,174.006805 432.028503,174.060013 431.327393,174.227753 
	C429.273499,175.505768 427.219604,176.783798 424.596100,178.211975 
	C424.404968,178.256851 424.213806,178.301712 423.331055,178.107468 
	C421.518341,179.057800 419.705597,180.008133 417.084930,181.024002 
	C408.788025,183.422333 400.491119,185.820663 391.733459,187.753326 
	C391.572937,187.605286 391.412415,187.457245 391.684204,186.786194 
	C394.250305,185.066727 396.679688,183.082123 399.407318,181.675873 
	C408.834503,176.815628 418.709595,172.726700 427.760986,167.262253 
	C436.936096,161.723114 444.880402,154.487076 449.603851,143.712662 
	C450.329224,142.131989 451.054596,140.551315 451.950562,138.300156 
	C452.348602,137.229630 452.746643,136.159103 453.789795,134.612579 
	C453.840332,132.733185 453.890839,130.853790 454.001160,128.961166 
	C454.001160,128.961166 453.956879,128.918869 454.234406,128.603104 
	C454.203339,128.208206 454.172302,127.813293 454.382355,126.614784 
	C454.495087,126.067818 454.607788,125.520844 454.893829,124.503700 
	C454.874786,124.337753 454.855743,124.171814 454.937012,123.349266 
	C454.914124,122.908089 454.891235,122.466919 454.984039,121.305679 
	C454.781464,120.105110 454.578918,118.904541 454.109039,116.119354 
	C450.041687,121.035393 446.865448,124.874405 443.928162,128.710098 
	C443.928162,128.710098 443.690308,128.681747 443.056274,128.928116 
	C439.064758,132.298080 435.073273,135.668045 430.555481,139.125916 
	C430.384674,139.175400 430.213837,139.224869 429.363312,139.356461 
	C419.515747,145.154755 409.668182,150.953033 399.820648,156.751328 
	C399.518433,156.348572 399.216217,155.945801 398.914032,155.543045 
	C399.214233,154.666916 399.514435,153.790787 399.946747,152.883453 
	C399.946747,152.883453 399.948639,152.747726 400.327789,152.601868 
	C400.564667,152.444336 400.719513,152.228073 400.918304,151.973053 
	C400.918304,151.973053 400.960297,151.852554 401.427490,151.752380 
M284.837891,243.999374 
	C293.236725,240.668991 301.635559,237.338608 310.765472,233.851898 
	C316.600403,230.548035 322.979004,227.908279 328.091980,223.722549 
	C331.930054,220.580490 334.141266,215.451202 337.729828,210.948883 
	C342.365875,203.276337 345.547516,195.197403 344.908722,185.184570 
	C345.563141,181.690598 346.200012,178.193253 346.875061,174.703262 
	C349.769287,159.740372 356.742798,147.051300 368.677063,136.621048 
	C372.465546,133.086288 376.254059,129.551529 380.748596,125.948372 
	C383.397858,124.306473 386.027985,122.632607 388.702515,121.032997 
	C390.771271,119.795685 392.039154,118.317879 389.389160,116.606201 
	C385.262451,113.940689 381.208008,110.915039 376.690033,109.150391 
	C363.436646,103.973869 349.706635,100.513107 335.322540,101.419464 
	C329.931519,101.759155 324.595978,103.106400 319.256073,104.106033 
	C305.506256,106.680016 293.291870,112.939552 282.986725,121.985970 
	C273.644196,130.187393 265.275848,139.370987 259.703613,151.105316 
	C253.882080,163.364685 250.669540,176.038010 249.216110,189.295242 
	C248.832428,192.794952 249.707336,196.432617 250.096741,200.845917 
	C251.440842,207.463745 251.855484,214.457947 254.347046,220.611160 
	C258.079712,229.829407 263.190857,238.500427 267.943481,247.280914 
	C268.540558,248.384018 270.817780,249.623352 271.803680,249.288712 
	C275.995453,247.865829 279.994049,245.874023 284.837891,243.999374 
M518.354980,86.016655 
	C513.715515,84.392937 509.063110,81.371231 504.438965,81.413803 
	C491.761688,81.530518 479.103546,83.065567 466.422913,83.770882 
	C460.779449,84.084778 460.420258,87.152824 461.510681,91.952415 
	C467.285980,91.576820 473.239777,92.109100 478.641357,90.627823 
	C487.238617,88.270180 495.588104,88.660538 504.132111,89.995872 
	C511.005127,91.070045 515.071472,97.112335 511.879059,103.256622 
	C508.715851,109.344749 504.833069,115.362083 500.083496,120.265038 
	C486.812225,133.964767 472.492615,146.540024 456.382904,156.930664 
	C452.486145,159.444016 449.035309,162.338287 450.331268,167.896042 
	C450.560120,168.877380 449.868591,170.082352 449.571259,171.175674 
	C448.732025,174.261719 447.876740,177.343399 447.027771,180.426788 
	C447.464050,180.655365 447.900360,180.883926 448.336639,181.112503 
	C450.352203,180.096893 452.598816,179.377823 454.345490,178.017075 
	C464.986176,169.727310 475.832489,161.658615 485.998596,152.813217 
	C499.160309,141.361374 511.831085,129.349564 521.043701,114.219307 
	C526.871277,104.648392 526.145996,93.524330 518.354980,86.016655 
z"/>
<path fill="#4D6B7D" opacity="1.000000" stroke="none" 
	d="
M424.022644,178.346588 
	C424.213806,178.301712 424.404968,178.256851 425.245087,178.104492 
	C427.938873,176.684662 429.983704,175.372330 432.028503,174.060013 
	C432.028503,174.060013 432.000916,174.006805 432.411774,173.988647 
	C437.041260,172.055908 439.067017,174.047882 439.994598,177.996277 
	C439.768768,178.826569 439.542938,179.656845 438.804993,180.866440 
	C437.872070,182.194427 437.451294,183.143127 437.030518,184.091827 
	C437.030487,184.091812 436.943604,184.540604 436.529114,184.802460 
	C435.061707,186.674820 434.008789,188.285324 432.955872,189.895813 
	C432.014008,191.059692 431.072144,192.223557 429.650513,193.767776 
	C424.764496,197.448288 420.358307,200.748444 415.602783,204.103424 
	C395.293518,214.913666 375.539398,226.076660 355.307251,236.292923 
	C339.686523,244.180664 323.453613,250.853516 307.534760,258.157776 
	C306.150909,258.792725 305.080139,260.109924 303.466919,261.093475 
	C298.079437,262.379211 293.088928,263.681641 287.771088,264.882385 
	C283.630981,261.501617 279.818237,258.222534 276.005463,254.943481 
	C286.989441,250.609192 297.763214,245.604965 309.000763,242.078857 
	C333.043274,234.534851 348.944458,215.136841 351.194366,190.151733 
	C352.241455,178.524017 353.977417,166.827087 360.190247,156.578720 
	C365.166595,148.370041 372.042084,141.765091 379.578644,135.840714 
	C394.448212,124.152000 409.649567,112.842361 423.954651,100.496437 
	C431.227570,94.219574 436.877533,86.054626 443.209351,78.698578 
	C445.744965,75.752838 448.141144,72.687080 450.597107,69.672783 
	C457.092194,76.071777 453.378052,103.579185 444.022430,113.961006 
	C442.906067,115.073021 442.411560,115.954048 441.917053,116.835083 
	C441.917053,116.835083 441.923096,116.917358 441.529785,116.959900 
	C438.397308,120.280777 435.658142,123.559097 432.919006,126.837433 
	C432.919006,126.837433 432.932526,126.917381 432.568481,126.967430 
	C431.495270,127.719017 430.786102,128.420547 430.076904,129.122086 
	C430.076904,129.122086 430.032318,129.043793 429.723633,129.080597 
	C428.589905,130.025909 427.764862,130.934402 426.939758,131.842896 
	C426.737457,132.119171 426.535156,132.395462 425.943726,132.949463 
	C425.322693,133.412216 425.128326,133.630646 424.971527,133.882507 
	C424.971527,133.882507 424.945190,133.960632 424.572693,133.976318 
	C423.123688,134.927292 422.047150,135.862549 420.970612,136.797821 
	C420.970612,136.797821 420.503082,136.937256 419.890076,136.991028 
	C415.990631,138.748047 411.095062,138.590515 411.108032,144.109131 
	C411.108032,144.109131 411.041260,144.064987 410.872833,144.178040 
	C410.441406,144.473373 410.199799,144.680618 409.979645,144.912827 
	C409.120178,145.524002 408.260712,146.135178 406.741028,146.867325 
	C404.722198,148.323059 403.363617,149.657822 402.005035,150.992569 
	C402.005035,150.992569 402.003540,151.005646 401.801300,151.115845 
	C401.352142,151.400238 401.139221,151.609070 400.960297,151.852554 
	C400.960297,151.852554 400.918304,151.973053 400.696411,152.074738 
	C400.271973,152.341766 400.096680,152.532196 399.948639,152.747726 
	C399.948639,152.747726 399.946747,152.883453 399.497070,152.916046 
	C397.112732,154.422134 395.056152,155.772263 393.340912,157.467697 
	C392.974884,157.829514 393.848877,159.445831 394.151611,160.484192 
	C396.298950,159.847504 398.616241,159.534683 400.562042,158.513870 
	C406.574951,155.359314 412.611115,152.191788 418.317566,148.529648 
	C422.488251,145.853119 426.152832,142.387970 430.042999,139.274353 
	C430.213837,139.224869 430.384674,139.175400 431.177124,139.054626 
	C436.484833,136.383179 442.296539,135.082367 443.690308,128.681747 
	C443.690308,128.681747 443.928162,128.710098 444.184906,128.725403 
	C445.913849,127.597939 447.311188,126.337280 448.877350,125.342484 
	C450.800629,124.120850 452.864990,123.121292 454.868347,122.025742 
	C454.891235,122.466919 454.914124,122.908089 454.797546,123.780502 
	C454.530151,124.475914 454.550964,124.729958 454.720490,124.973869 
	C454.607788,125.520844 454.495087,126.067818 454.215271,127.197968 
	C454.017761,128.160400 453.987335,128.539627 453.956879,128.918869 
	C453.956879,128.918869 454.001160,128.961166 453.667023,129.078171 
	C450.489563,131.070862 451.123291,133.057571 453.144714,135.088577 
	C452.746643,136.159103 452.348602,137.229630 451.558167,138.768051 
	C450.454651,140.846313 449.743530,142.456680 449.032410,144.067047 
	C444.880402,154.487076 436.936096,161.723114 427.760986,167.262253 
	C418.709595,172.726700 408.834503,176.815628 399.407318,181.675873 
	C396.679688,183.082123 394.250305,185.066727 391.222717,187.186630 
	C390.337280,187.882935 389.913300,188.178818 389.489319,188.474701 
	C389.578644,188.666992 389.667969,188.859268 389.757294,189.051559 
	C390.569611,188.774048 391.381897,188.496521 392.194214,188.219009 
	C400.491119,185.820663 408.788025,183.422333 417.878662,180.998535 
	C420.455841,180.097580 422.239227,179.222092 424.022644,178.346588 
z"/>
<path fill="#A0B1B9" opacity="1.000000" stroke="none" 
	d="
M368.047119,136.782074 
	C356.742798,147.051300 349.769287,159.740372 346.875061,174.703262 
	C346.200012,178.193253 345.563141,181.690598 344.435699,185.609970 
	C339.974457,186.357849 335.986206,186.680328 331.805511,186.726562 
	C326.598633,181.952820 320.848206,178.736877 314.021576,180.127213 
	C308.623749,181.226562 303.358551,183.338623 298.285828,185.571960 
	C293.104309,187.853210 289.743073,187.554916 285.264252,183.972397 
	C283.992981,182.955521 281.502441,182.327469 280.060394,182.856033 
	C273.807312,185.148117 273.598022,184.991592 271.005463,178.666306 
	C269.981110,176.167084 267.623901,174.214157 265.884460,171.614044 
	C266.049957,170.234772 266.034760,169.188522 266.383789,168.282578 
	C277.373810,139.756180 296.890137,121.038666 327.605560,115.347893 
	C337.186981,113.572708 346.741791,113.274162 356.108368,117.275513 
	C356.957123,118.655167 357.846405,119.631729 358.515045,120.741287 
	C361.725098,126.068504 364.875519,131.431671 368.047119,136.782074 
M319.584320,145.307144 
	C312.884949,137.471542 304.457825,136.619278 297.160919,143.649017 
	C294.272217,146.431946 291.925568,150.128235 290.340118,153.839310 
	C287.168152,161.263962 293.097473,169.554520 301.210907,170.182083 
	C311.499573,170.977921 325.057495,159.318573 319.584320,145.307144 
M339.706573,127.451431 
	C335.834106,126.371490 332.354980,127.071152 329.833282,130.273224 
	C329.219696,131.052322 329.275116,132.955627 329.797211,133.925003 
	C331.726593,137.507187 335.390717,137.537659 338.584320,136.823883 
	C340.803467,136.327881 342.682159,134.308640 344.712952,132.969925 
	C343.293213,131.226181 341.873474,129.482437 339.706573,127.451431 
z"/>
<path fill="#99AAB1" opacity="1.000000" stroke="none" 
	d="
M275.624695,255.027466 
	C279.818237,258.222534 283.630981,261.501617 287.735657,265.179504 
	C287.970154,265.971771 287.912781,266.365173 287.855408,266.758606 
	C281.446289,268.781372 275.117188,271.120178 268.612915,272.767120 
	C249.852570,277.517395 231.162827,282.753754 212.161514,286.261841 
	C201.944244,288.148224 191.094833,287.550690 180.627914,286.769897 
	C174.926224,286.344604 169.019257,283.930634 163.929367,281.107391 
	C155.372711,276.361206 155.087738,264.366791 159.734512,254.982422 
	C167.320160,239.662827 179.405029,228.296417 192.168930,217.610794 
	C202.948181,208.586639 214.139832,200.036789 225.403656,191.617767 
	C230.719727,187.644333 236.632477,184.469208 242.921524,180.527039 
	C243.263931,185.475769 243.139511,189.007233 239.353821,191.726624 
	C226.677872,200.832214 213.710648,209.603943 201.652618,219.477646 
	C190.082550,228.951828 179.109390,239.309647 171.905228,252.804031 
	C170.291443,255.826904 169.049072,259.103882 168.061615,262.391785 
	C166.706726,266.903198 169.949448,271.920319 174.518173,272.960968 
	C186.197357,275.621124 197.950699,274.860168 209.539459,272.880005 
	C221.452072,270.844543 233.321121,268.300385 244.988235,265.158203 
	C255.232346,262.399200 265.170563,258.504517 275.624695,255.027466 
z"/>
<path fill="#7797AC" opacity="1.000000" stroke="none" 
	d="
M265.873596,172.012482 
	C267.623901,174.214157 269.981110,176.167084 271.005463,178.666306 
	C273.598022,184.991592 273.807312,185.148117 280.060394,182.856033 
	C281.502441,182.327469 283.992981,182.955521 285.264252,183.972397 
	C289.743073,187.554916 293.104309,187.853210 298.285828,185.571960 
	C303.358551,183.338623 308.623749,181.226562 314.021576,180.127213 
	C320.848206,178.736877 326.598633,181.952820 331.796387,187.118286 
	C330.980316,191.488968 329.980865,195.191620 328.563049,198.909134 
	C325.640228,199.121475 322.454865,198.309357 322.131226,202.211334 
	C321.813477,206.042801 325.108124,205.886963 327.502930,206.592987 
	C328.276581,206.821075 329.118713,206.816895 330.321960,206.945038 
	C333.076111,208.021072 337.463287,206.028503 337.076752,211.206635 
	C334.141266,215.451202 331.930054,220.580490 328.091980,223.722549 
	C322.979004,227.908279 316.600403,230.548035 310.013275,233.888016 
	C303.638794,232.569946 298.016510,231.215759 292.305725,229.501587 
	C290.515320,224.416946 287.638702,221.713135 281.926300,223.161987 
	C280.267639,222.042618 278.861755,221.182724 277.594452,220.152420 
	C273.053802,216.460983 268.560028,212.711823 263.995911,208.619873 
	C263.603271,206.823196 263.263306,205.391113 263.116699,203.657333 
	C262.663086,192.785095 262.200134,182.229630 265.873596,172.012482 
M300.559814,214.179138 
	C301.376953,213.384460 302.427307,212.723068 302.970917,211.772018 
	C305.335144,207.635696 303.167633,201.725235 298.614136,199.564423 
	C294.083679,197.414520 288.773926,199.322922 287.803223,204.335419 
	C287.256744,207.157318 288.255188,210.964462 289.933289,213.366852 
	C292.321381,216.785721 296.292694,216.178268 300.559814,214.179138 
z"/>
<path fill="#4E6A7C" opacity="1.000000" stroke="none" 
	d="
M265.884460,171.614044 
	C262.200134,182.229630 262.663086,192.785095 262.818237,203.475159 
	C258.219055,202.398788 254.111679,201.202866 250.004303,200.006943 
	C249.707336,196.432617 248.832428,192.794952 249.216110,189.295242 
	C250.669540,176.038010 253.882080,163.364685 259.703613,151.105316 
	C265.275848,139.370987 273.644196,130.187393 282.986725,121.985970 
	C293.291870,112.939552 305.506256,106.680016 319.256073,104.106033 
	C324.595978,103.106400 329.931519,101.759155 335.322540,101.419464 
	C349.706635,100.513107 363.436646,103.973869 376.690033,109.150391 
	C381.208008,110.915039 385.262451,113.940689 389.389160,116.606201 
	C392.039154,118.317879 390.771271,119.795685 388.702515,121.032997 
	C386.027985,122.632607 383.397858,124.306473 380.118469,125.778130 
	C372.081451,121.617073 364.861816,117.120255 356.047211,116.933716 
	C346.741791,113.274162 337.186981,113.572708 327.605560,115.347893 
	C296.890137,121.038666 277.373810,139.756180 266.383789,168.282578 
	C266.034760,169.188522 266.049957,170.234772 265.884460,171.614044 
z"/>
<path fill="#395265" opacity="1.000000" stroke="none" 
	d="
M288.178101,266.921021 
	C287.912781,266.365173 287.970154,265.971771 288.062988,265.281189 
	C293.088928,263.681641 298.079437,262.379211 303.754333,261.301819 
	C305.660919,262.052399 306.881653,262.581268 308.105499,263.102936 
	C336.021423,275.001862 362.229431,272.343536 386.469543,253.739746 
	C402.898895,241.130554 412.748535,224.542419 415.952118,204.048615 
	C420.358307,200.748444 424.764496,197.448288 429.494690,194.056641 
	C430.007050,208.523026 425.813324,221.816711 419.196686,234.715714 
	C411.500610,249.719101 400.236664,261.256653 386.319489,270.142853 
	C369.578827,280.831848 350.726776,284.471039 331.197540,282.789093 
	C315.751770,281.458801 301.334320,276.122894 288.178101,266.921021 
z"/>
<path fill="#697784" opacity="1.000000" stroke="none" 
	d="
M518.625732,86.269035 
	C526.145996,93.524330 526.871277,104.648392 521.043701,114.219307 
	C511.831085,129.349564 499.160309,141.361374 485.998596,152.813217 
	C475.832489,161.658615 464.986176,169.727310 454.345490,178.017075 
	C452.598816,179.377823 450.352203,180.096893 448.336639,181.112503 
	C447.900360,180.883926 447.464050,180.655365 447.027771,180.426788 
	C447.876740,177.343399 448.732025,174.261719 449.571259,171.175674 
	C449.868591,170.082352 450.560120,168.877380 450.331268,167.896042 
	C449.035309,162.338287 452.486145,159.444016 456.382904,156.930664 
	C472.492615,146.540024 486.812225,133.964767 500.083496,120.265038 
	C504.833069,115.362083 508.715851,109.344749 511.879059,103.256622 
	C515.071472,97.112335 511.005127,91.070045 504.132111,89.995872 
	C495.588104,88.660538 487.238617,88.270180 478.641357,90.627823 
	C473.239777,92.109100 467.285980,91.576820 461.510681,91.952415 
	C460.420258,87.152824 460.779449,84.084778 466.422913,83.770882 
	C479.103546,83.065567 491.761688,81.530518 504.438965,81.413803 
	C509.063110,81.371231 513.715515,84.392937 518.625732,86.269035 
z"/>
<path fill="#4A6779" opacity="1.000000" stroke="none" 
	d="
M250.050537,200.426422 
	C254.111679,201.202866 258.219055,202.398788 262.624878,203.776886 
	C263.263306,205.391113 263.603271,206.823196 264.000061,209.000717 
	C267.302032,217.505722 270.018829,225.550430 273.994263,232.915817 
	C276.308289,237.203110 280.639587,240.401581 284.063202,244.089966 
	C279.994049,245.874023 275.995453,247.865829 271.803680,249.288712 
	C270.817780,249.623352 268.540558,248.384018 267.943481,247.280914 
	C263.190857,238.500427 258.079712,229.829407 254.347046,220.611160 
	C251.855484,214.457947 251.440842,207.463745 250.050537,200.426422 
z"/>
<path fill="#6A7C8A" opacity="1.000000" stroke="none" 
	d="
M284.450562,244.044678 
	C280.639587,240.401581 276.308289,237.203110 273.994263,232.915817 
	C270.018829,225.550430 267.302032,217.505722 264.052704,209.365326 
	C268.560028,212.711823 273.053802,216.460983 277.594452,220.152420 
	C278.861755,221.182724 280.267639,222.042618 281.882660,223.527466 
	C282.834381,226.565079 283.019653,229.375534 284.356476,231.440460 
	C285.336884,232.954910 287.783966,234.050613 289.666321,234.198120 
	C290.457489,234.260132 291.477997,231.395645 292.394226,229.861572 
	C298.016510,231.215759 303.638794,232.569946 309.647766,233.966187 
	C301.635559,237.338608 293.236725,240.668991 284.450562,244.044678 
z"/>
<path fill="#87A4AF" opacity="1.000000" stroke="none" 
	d="
M337.403290,211.077759 
	C337.463287,206.028503 333.076111,208.021072 330.342224,206.534363 
	C329.640472,203.696518 329.310944,201.295410 328.981445,198.894287 
	C329.980865,195.191620 330.980316,191.488968 331.988861,187.394562 
	C335.986206,186.680328 339.974457,186.357849 344.332947,186.014420 
	C345.547516,195.197403 342.365875,203.276337 337.403290,211.077759 
z"/>
<path fill="#7996A8" opacity="1.000000" stroke="none" 
	d="
M356.108368,117.275513 
	C364.861816,117.120255 372.081451,121.617073 379.765442,125.812332 
	C376.254059,129.551529 372.465546,133.086288 368.362122,136.701553 
	C364.875519,131.431671 361.725098,126.068504 358.515045,120.741287 
	C357.846405,119.631729 356.957123,118.655167 356.108368,117.275513 
z"/>
<path fill="#4D616E" opacity="1.000000" stroke="none" 
	d="
M429.703156,139.315399 
	C426.152832,142.387970 422.488251,145.853119 418.317566,148.529648 
	C412.611115,152.191788 406.574951,155.359314 400.562042,158.513870 
	C398.616241,159.534683 396.298950,159.847504 394.151611,160.484192 
	C393.848877,159.445831 392.974884,157.829514 393.340912,157.467697 
	C395.056152,155.772263 397.112732,154.422134 399.431000,152.931656 
	C399.514435,153.790787 399.214233,154.666916 398.914032,155.543045 
	C399.216217,155.945801 399.518433,156.348572 399.820648,156.751328 
	C409.668182,150.953033 419.515747,145.154755 429.703156,139.315399 
M395.734955,158.801575 
	C396.001495,158.560974 396.268066,158.320358 396.534637,158.079773 
	C396.179626,158.157654 395.824615,158.235550 395.734955,158.801575 
z"/>
<path fill="#516470" opacity="1.000000" stroke="none" 
	d="
M440.253113,177.766998 
	C439.067017,174.047882 437.041260,172.055908 432.439484,174.000061 
	C435.737091,171.180344 439.417847,168.331039 443.098633,165.481735 
	C443.708344,165.992264 444.318054,166.502777 444.927765,167.013306 
	C443.455719,170.521439 441.983704,174.029572 440.253113,177.766998 
z"/>
<path fill="#4D616E" opacity="1.000000" stroke="none" 
	d="
M454.926208,121.665710 
	C452.864990,123.121292 450.800629,124.120850 448.877350,125.342484 
	C447.311188,126.337280 445.913849,127.597939 444.065430,128.727066 
	C446.865448,124.874405 450.041687,121.035393 454.109039,116.119354 
	C454.578918,118.904541 454.781464,120.105110 454.926208,121.665710 
z"/>
<path fill="#4D616E" opacity="1.000000" stroke="none" 
	d="
M443.373291,128.804932 
	C442.296539,135.082367 436.484833,136.383179 431.440247,139.010681 
	C435.073273,135.668045 439.064758,132.298080 443.373291,128.804932 
z"/>
<path fill="#4D616E" opacity="1.000000" stroke="none" 
	d="
M433.208984,126.681358 
	C435.658142,123.559097 438.397308,120.280777 441.488556,116.961090 
	C439.060059,120.121574 436.279480,123.323433 433.208984,126.681358 
z"/>
<path fill="#4D616E" opacity="1.000000" stroke="none" 
	d="
M411.405579,143.945084 
	C411.095062,138.590515 415.990631,138.748047 419.648468,137.024719 
	C417.247589,139.263443 414.475342,141.522232 411.405579,143.945084 
z"/>
<path fill="#516470" opacity="1.000000" stroke="none" 
	d="
M431.677948,174.143890 
	C429.983704,175.372330 427.938873,176.684662 425.529877,178.029419 
	C427.219604,176.783798 429.273499,175.505768 431.677948,174.143890 
z"/>
<path fill="#4D616E" opacity="1.000000" stroke="none" 
	d="
M453.467255,134.850586 
	C451.123291,133.057571 450.489563,131.070862 453.637146,129.084778 
	C453.890839,130.853790 453.840332,132.733185 453.467255,134.850586 
z"/>
<path fill="#516470" opacity="1.000000" stroke="none" 
	d="
M423.676849,178.227020 
	C422.239227,179.222092 420.455841,180.097580 418.282654,180.965775 
	C419.705597,180.008133 421.518341,179.057800 423.676849,178.227020 
z"/>
<path fill="#516470" opacity="1.000000" stroke="none" 
	d="
M433.287964,189.869690 
	C434.008789,188.285324 435.061707,186.674820 436.455811,185.018951 
	C435.738037,186.596909 434.679047,188.220245 433.287964,189.869690 
z"/>
<path fill="#4D616E" opacity="1.000000" stroke="none" 
	d="
M402.307678,150.877533 
	C403.363617,149.657822 404.722198,148.323059 406.434143,146.951569 
	C405.395142,148.197388 404.002716,149.479950 402.307678,150.877533 
z"/>
<path fill="#4D616E" opacity="1.000000" stroke="none" 
	d="
M449.318115,143.889862 
	C449.743530,142.456680 450.454651,140.846313 451.472900,139.103302 
	C451.054596,140.551315 450.329224,142.131989 449.318115,143.889862 
z"/>
<path fill="#4D616E" opacity="1.000000" stroke="none" 
	d="
M421.297485,136.833069 
	C422.047150,135.862549 423.123688,134.927292 424.533997,133.962204 
	C423.786621,134.911041 422.705505,135.889679 421.297485,136.833069 
z"/>
<path fill="#4D616E" opacity="1.000000" stroke="none" 
	d="
M427.235931,131.757599 
	C427.764862,130.934402 428.589905,130.025909 429.763367,129.101807 
	C429.251862,129.948257 428.391968,130.810287 427.235931,131.757599 
z"/>
<path fill="#4D616E" opacity="1.000000" stroke="none" 
	d="
M442.199188,116.713577 
	C442.411560,115.954048 442.906067,115.073021 443.704956,114.096176 
	C443.500000,114.864265 442.990662,115.728165 442.199188,116.713577 
z"/>
<path fill="#4D616E" opacity="1.000000" stroke="none" 
	d="
M430.377808,129.045547 
	C430.786102,128.420547 431.495270,127.719017 432.528259,126.972557 
	C432.127625,127.608093 431.403168,128.288544 430.377808,129.045547 
z"/>
<path fill="#516470" opacity="1.000000" stroke="none" 
	d="
M437.314148,183.940918 
	C437.451294,183.143127 437.872070,182.194427 438.594086,181.119370 
	C438.462799,181.925339 438.030304,182.857681 437.314148,183.940918 
z"/>
<path fill="#4D616E" opacity="1.000000" stroke="none" 
	d="
M454.095642,128.760986 
	C453.987335,128.539627 454.017761,128.160400 454.094727,127.599777 
	C454.172302,127.813293 454.203339,128.208206 454.095642,128.760986 
z"/>
<path fill="#4D616E" opacity="1.000000" stroke="none" 
	d="
M454.807159,124.738785 
	C454.550964,124.729958 454.530151,124.475914 454.747375,124.108803 
	C454.855743,124.171814 454.874786,124.337753 454.807159,124.738785 
z"/>
<path fill="#4D616E" opacity="1.000000" stroke="none" 
	d="
M400.138214,152.674805 
	C400.096680,152.532196 400.271973,152.341766 400.633423,152.064743 
	C400.719513,152.228073 400.564667,152.444336 400.138214,152.674805 
z"/>
<path fill="#4D616E" opacity="1.000000" stroke="none" 
	d="
M401.193909,151.802460 
	C401.139221,151.609070 401.352142,151.400238 401.794434,151.115906 
	C401.907837,151.334091 401.720398,151.582962 401.193909,151.802460 
z"/>
<path fill="#4D616E" opacity="1.000000" stroke="none" 
	d="
M410.254028,144.921585 
	C410.199799,144.680618 410.441406,144.473373 410.912476,144.172470 
	C410.923157,144.346024 410.725769,144.638184 410.254028,144.921585 
z"/>
<path fill="#4D616E" opacity="1.000000" stroke="none" 
	d="
M425.206116,133.830170 
	C425.128326,133.630646 425.322693,133.412216 425.737671,133.104874 
	C425.902771,133.333374 425.742767,133.598465 425.206116,133.830170 
z"/>
<path fill="#697A89" opacity="1.000000" stroke="none" 
	d="
M415.602783,204.103424 
	C412.748535,224.542419 402.898895,241.130554 386.469543,253.739746 
	C362.229431,272.343536 336.021423,275.001862 308.105499,263.102936 
	C306.881653,262.581268 305.660919,262.052399 304.151306,261.318542 
	C305.080139,260.109924 306.150909,258.792725 307.534760,258.157776 
	C323.453613,250.853516 339.686523,244.180664 355.307251,236.292923 
	C375.539398,226.076660 395.293518,214.913666 415.602783,204.103424 
M364.167267,241.458008 
	C362.506866,243.491440 360.477234,245.327667 359.263580,247.599731 
	C356.801819,252.208313 360.406433,257.474854 365.597504,256.616730 
	C371.124878,255.703003 376.009949,253.034256 378.918579,247.971680 
	C381.777405,242.995667 379.422150,238.853409 373.735931,239.015549 
	C370.724091,239.101425 367.743378,240.280945 364.167267,241.458008 
M394.521423,228.138641 
	C390.860504,225.836258 389.510651,228.759964 388.405426,231.189392 
	C388.043274,231.985443 389.277130,233.507553 389.781128,234.697632 
	C391.438568,233.382782 393.153168,232.130142 394.707642,230.703125 
	C395.037781,230.400055 394.784241,229.461105 394.521423,228.138641 
z"/>
<path fill="#000000" opacity="1.000000" stroke="none" 
	d="
M391.963837,187.986176 
	C391.381897,188.496521 390.569611,188.774048 389.757294,189.051559 
	C389.667969,188.859268 389.578644,188.666992 389.489319,188.474701 
	C389.913300,188.178818 390.337280,187.882935 391.006592,187.448151 
	C391.412415,187.457245 391.572937,187.605286 391.963837,187.986176 
z"/>
<path fill="#728392" opacity="1.000000" stroke="none" 
	d="
M319.744751,145.665192 
	C325.057495,159.318573 311.499573,170.977921 301.210907,170.182083 
	C293.097473,169.554520 287.168152,161.263962 290.340118,153.839310 
	C291.925568,150.128235 294.272217,146.431946 297.160919,143.649017 
	C304.457825,136.619278 312.884949,137.471542 319.744751,145.665192 
z"/>
<path fill="#7795A6" opacity="1.000000" stroke="none" 
	d="
M340.080170,127.595062 
	C341.873474,129.482437 343.293213,131.226181 344.712952,132.969925 
	C342.682159,134.308640 340.803467,136.327881 338.584320,136.823883 
	C335.390717,137.537659 331.726593,137.507187 329.797211,133.925003 
	C329.275116,132.955627 329.219696,131.052322 329.833282,130.273224 
	C332.354980,127.071152 335.834106,126.371490 340.080170,127.595062 
z"/>
<path fill="#6E808E" opacity="1.000000" stroke="none" 
	d="
M300.214050,214.349823 
	C296.292694,216.178268 292.321381,216.785721 289.933289,213.366852 
	C288.255188,210.964462 287.256744,207.157318 287.803223,204.335419 
	C288.773926,199.322922 294.083679,197.414520 298.614136,199.564423 
	C303.167633,201.725235 305.335144,207.635696 302.970917,211.772018 
	C302.427307,212.723068 301.376953,213.384460 300.214050,214.349823 
z"/>
<path fill="#455F74" opacity="1.000000" stroke="none" 
	d="
M292.305725,229.501587 
	C291.477997,231.395645 290.457489,234.260132 289.666321,234.198120 
	C287.783966,234.050613 285.336884,232.954910 284.356476,231.440460 
	C283.019653,229.375534 282.834381,226.565079 282.199036,223.708786 
	C287.638702,221.713135 290.515320,224.416946 292.305725,229.501587 
z"/>
<path fill="#99B1BB" opacity="1.000000" stroke="none" 
	d="
M328.563049,198.909134 
	C329.310944,201.295410 329.640472,203.696518 329.949768,206.508301 
	C329.118713,206.816895 328.276581,206.821075 327.502930,206.592987 
	C325.108124,205.886963 321.813477,206.042801 322.131226,202.211334 
	C322.454865,198.309357 325.640228,199.121475 328.563049,198.909134 
z"/>
<path fill="#000000" opacity="1.000000" stroke="none" 
	d="
M395.602295,158.557510 
	C395.824615,158.235550 396.179626,158.157654 396.534637,158.079773 
	C396.268066,158.320358 396.001495,158.560974 395.602295,158.557510 
z"/>
<path fill="#3B5569" opacity="1.000000" stroke="none" 
	d="
M364.457947,241.212372 
	C367.743378,240.280945 370.724091,239.101425 373.735931,239.015549 
	C379.422150,238.853409 381.777405,242.995667 378.918579,247.971680 
	C376.009949,253.034256 371.124878,255.703003 365.597504,256.616730 
	C360.406433,257.474854 356.801819,252.208313 359.263580,247.599731 
	C360.477234,245.327667 362.506866,243.491440 364.457947,241.212372 
z"/>
<path fill="#506B7E" opacity="1.000000" stroke="none" 
	d="
M394.660522,228.476883 
	C394.784241,229.461105 395.037781,230.400055 394.707642,230.703125 
	C393.153168,232.130142 391.438568,233.382782 389.781128,234.697632 
	C389.277130,233.507553 388.043274,231.985443 388.405426,231.189392 
	C389.510651,228.759964 390.860504,225.836258 394.660522,228.476883 
z"/>
</svg>